<svg width="24" height="24" viewBox="0 0 24 24" fill="none" xmlns="http://www.w3.org/2000/svg">
<mask id="path-1-inside-1_2108_14541" fill="white">
<rect width="24" height="24" rx="1"/>
</mask>
<rect width="24" height="24" rx="1" stroke="#666666" stroke-width="4" mask="url(#path-1-inside-1_2108_14541)"/>
<path d="M6.85087 8.31187C7.09022 8.27259 7.23648 8.23331 7.28967 8.19402C7.34286 8.15081 7.36945 8.06832 7.36945 7.94655V4.76473C6.87937 4.77259 6.61723 4.78437 6.58304 4.80008C6.54885 4.8158 6.52225 4.83347 6.50326 4.85311C6.45767 4.91597 6.40258 5.13791 6.338 5.51894L6.04737 5.49537C6.04357 5.43645 6.04167 5.32253 6.04167 5.15362C6.04167 4.98078 6.05876 4.74902 6.09295 4.45833H9.19871C9.2329 4.74902 9.25 4.98078 9.25 5.15362C9.25 5.32253 9.2481 5.43645 9.2443 5.49537L8.95367 5.51894C8.88909 5.13791 8.8321 4.91597 8.78271 4.85311C8.76752 4.83347 8.74282 4.8158 8.70863 4.80008C8.67444 4.78437 8.4123 4.77259 7.92222 4.76473V8.08796C7.92222 8.17831 7.96021 8.22938 8.03619 8.24116L8.47498 8.31187L8.45219 8.54167H6.88506L6.85087 8.31187Z" fill="#666666"/>
<path fill-rule="evenodd" clip-rule="evenodd" d="M4 3H6.625V3.58333H4.58333V5.625H4V3Z" fill="#666666"/>
<path fill-rule="evenodd" clip-rule="evenodd" d="M4 10H6.625V9.41667H4.58333V7.375H4V10Z" fill="#666666"/>
<path fill-rule="evenodd" clip-rule="evenodd" d="M11 3H8.375V3.58333H10.4167V5.625H11V3Z" fill="#666666"/>
<path fill-rule="evenodd" clip-rule="evenodd" d="M11 10H8.375V9.41667H10.4167V7.375H11V10Z" fill="#666666"/>
<path fill-rule="evenodd" clip-rule="evenodd" d="M20 12.5C20 12.7761 19.7761 13 19.5 13H4.5C4.22386 13 4 12.7761 4 12.5V12.5C4 12.2239 4.22386 12 4.5 12H19.5C19.7761 12 20 12.2239 20 12.5V12.5Z" fill="#666666" fill-opacity="0.5"/>
<path fill-rule="evenodd" clip-rule="evenodd" d="M20 15.5C20 15.7761 19.7761 16 19.5 16H4.5C4.22386 16 4 15.7761 4 15.5V15.5C4 15.2239 4.22386 15 4.5 15H19.5C19.7761 15 20 15.2239 20 15.5V15.5Z" fill="#666666" fill-opacity="0.5"/>
<path fill-rule="evenodd" clip-rule="evenodd" d="M20 18.5C20 18.7761 19.7761 19 19.5 19H4.5C4.22386 19 4 18.7761 4 18.5V18.5C4 18.2239 4.22386 18 4.5 18H19.5C19.7761 18 20 18.2239 20 18.5V18.5Z" fill="#666666" fill-opacity="0.5"/>
</svg>
